<?xml version="1.0" encoding="utf-8"?>
<svg viewBox="0 0 48 48" xmlns="http://www.w3.org/2000/svg">
  <defs>
    <linearGradient gradientUnits="userSpaceOnUse" x1="23.97" y1="10.535" x2="23.97" y2="37.54" id="gradient-1" gradientTransform="matrix(1, 0, 0, 1, 0, -0.000023)">
      <stop offset="0" style="stop-color: rgb(9.4118% 29.804% 43.137%)"/>
      <stop offset="1" style="stop-color: rgb(0% 19.079% 31.156%)"/>
    </linearGradient>
    <linearGradient gradientUnits="userSpaceOnUse" x1="39.572" y1="19.114" x2="39.572" y2="26.181" id="gradient-4" gradientTransform="matrix(-0.711116, -0.703075, 0.495851, -0.50152, 58.678755, 63.283731)">
      <stop offset="0" style="stop-color: rgb(100% 94.51% 0%)"/>
      <stop offset="1" style="stop-color: rgb(56.95% 53.926% 0%)"/>
    </linearGradient>
    <linearGradient gradientUnits="userSpaceOnUse" x1="-34.366" y1="-19.683" x2="-34.366" y2="-15.561" id="gradient-3" gradientTransform="matrix(-0.755019, -0.655704, 0.670514, -0.772073, -48.645241, -53.909442)">
      <stop offset="0" style="stop-color: rgb(100% 94.51% 0%)"/>
      <stop offset="1" style="stop-color: rgb(56.95% 53.926% 0%)"/>
    </linearGradient>
    <linearGradient gradientUnits="userSpaceOnUse" x1="42.301" y1="26.239" x2="42.301" y2="27.975" id="gradient-2" gradientTransform="matrix(-0.683217, -0.730215, 3.61062, -3.378232, -26.153066, 150.06314)">
      <stop offset="0" style="stop-color: rgb(100% 94.51% 0%)"/>
      <stop offset="1" style="stop-color: rgb(56.95% 53.926% 0%)"/>
    </linearGradient>
    <linearGradient gradientUnits="userSpaceOnUse" x1="41.049" y1="24.942" x2="41.049" y2="26.355" id="gradient-0" gradientTransform="matrix(-0.677485, -0.735539, 4.261333, -3.924983, -39.746772, 156.832357)">
      <stop offset="0" style="stop-color: rgb(100% 94.51% 0%)"/>
      <stop offset="1" style="stop-color: rgb(56.95% 53.926% 0%)"/>
    </linearGradient>
    <linearGradient gradientUnits="userSpaceOnUse" x1="39.572" y1="19.114" x2="39.572" y2="26.181" id="gradient-5" gradientTransform="matrix(-0.711116, -0.703075, 0.495851, -0.50152, 58.678755, 63.283731)">
      <stop offset="0" style="stop-color: rgb(100% 94.51% 0%)"/>
      <stop offset="1" style="stop-color: rgb(56.95% 53.926% 0%)"/>
    </linearGradient>
    <linearGradient gradientUnits="userSpaceOnUse" x1="-34.366" y1="-19.683" x2="-34.366" y2="-15.561" id="gradient-6" gradientTransform="matrix(-0.755019, -0.655704, 0.670514, -0.772073, -48.645241, -53.909442)">
      <stop offset="0" style="stop-color: rgb(100% 94.51% 0%)"/>
      <stop offset="1" style="stop-color: rgb(56.95% 53.926% 0%)"/>
    </linearGradient>
    <linearGradient gradientUnits="userSpaceOnUse" x1="42.301" y1="26.239" x2="42.301" y2="27.975" id="gradient-7" gradientTransform="matrix(-0.683217, -0.730215, 3.61062, -3.378232, -26.153066, 150.06314)">
      <stop offset="0" style="stop-color: rgb(100% 94.51% 0%)"/>
      <stop offset="1" style="stop-color: rgb(56.95% 53.926% 0%)"/>
    </linearGradient>
    <linearGradient gradientUnits="userSpaceOnUse" x1="41.049" y1="24.942" x2="41.049" y2="26.355" id="gradient-8" gradientTransform="matrix(-0.677485, -0.735539, 4.261333, -3.924983, -39.746772, 156.832357)">
      <stop offset="0" style="stop-color: rgb(100% 94.51% 0%)"/>
      <stop offset="1" style="stop-color: rgb(56.95% 53.926% 0%)"/>
    </linearGradient>
    <style>.cls-1{fill:none;stroke:#000000;stroke-linecap:round;stroke-linejoin:round;}</style>
  </defs>
  <path class="cls-1" d="M 33 19.55 C 33.009 14.369 28.652 10.251 23.48 10.55 C 18.6 10.81 14.94 15.2 14.94 20.1 L 14.94 28.49 C 14.912 33.48 18.95 37.54 23.94 37.54 C 28.911 37.54 32.94 33.511 32.94 28.54 L 32.94 19.64" style="stroke-dashoffset: 5px; stroke: url('#gradient-1'); stroke-width: 3px;">
    <title>Q circle</title>
  </path>
  <g transform="matrix(1.1933170557022095, 0, 0, 1.1933170557022095, -16.94967269897461, 9.197071075439453)" style="">
    <title>key</title>
    <line class="cls-1" x1="43.149" y1="26.181" x2="35.995" y2="19.114" style="stroke: url('#gradient-4');" transform="matrix(-1, 0, 0, -1, 79.143995, 45.294999)"/>
    <ellipse style="fill: none; stroke: url('#gradient-3');" cx="-34.366" cy="-17.622" rx="1.944" ry="2.061" transform="matrix(-1, 0, 0, -1, 0, 0)"/>
    <line class="cls-1" x1="43.171" y1="26.239" x2="41.431" y2="27.975" style="stroke: url('#gradient-2');" transform="matrix(-1, 0, 0, -1, 84.602002, 54.214003)"/>
    <line class="cls-1" x1="41.757" y1="24.942" x2="40.341" y2="26.355" style="stroke: url('#gradient-0');" transform="matrix(-1, 0, 0, -1, 82.098, 51.296997)"/>
  </g>
  <g transform="matrix(-1.1933170557022095, 0, 0, -1.1933170557022095, 64.88953399658203, 38.87671661376953)" style="">
    <title>key</title>
    <line class="cls-1" x1="43.149" y1="26.181" x2="35.995" y2="19.114" style="stroke: url('#gradient-5');" transform="matrix(-1, 0, 0, -1, 79.143995, 45.294999)"/>
    <ellipse style="fill: none; stroke: url('#gradient-6');" cx="-34.366" cy="-17.622" rx="1.944" ry="2.061" transform="matrix(-1, 0, 0, -1, 0, 0)"/>
    <line class="cls-1" x1="43.171" y1="26.239" x2="41.431" y2="27.975" style="stroke: url('#gradient-7');" transform="matrix(-1, 0, 0, -1, 84.602002, 54.214003)"/>
    <line class="cls-1" x1="41.757" y1="24.942" x2="40.341" y2="26.355" style="stroke: url('#gradient-8');" transform="matrix(-1, 0, 0, -1, 82.098, 51.296997)"/>
  </g>
  <g transform="matrix(1, 0, 0, 1, 9.583807945251465, 0.7659339308738708)" style="">
    <title>arrow</title>
    <polyline style="fill: none; stroke: rgb(200, 38, 38);" points="16.616 24.279 18.847 27.594 21.076 24.279"/>
    <line style="fill: none; stroke: rgb(200, 38, 38);" x1="18.847" y1="18.766" x2="18.847" y2="27.766"/>
  </g>
  <g transform="matrix(1, 0, 0, -1, 0.6640540361404419, 47.297935485839844)" style="">
    <title>arrow</title>
    <polyline style="paint-order: fill; fill: none; stroke: rgb(102, 162, 69);" points="16.616 24.279 18.847 27.594 21.076 24.279"/>
    <line style="fill: none; stroke: rgb(102, 162, 69);" x1="18.847" y1="18.766" x2="18.847" y2="27.766"/>
  </g>
</svg>